# xmcd
#
# Track frame offsets: 
#        150
#        11667
#        25115
#        37749
#        51637
#        65034
#        77171
#        88542
#        102524
#        115290
#        129882
#        143553
#        157262
#
# Disc length: 2281 seconds
#
# Revision: 0
# Processed by: cddbd v1.5.2PL0 Copyright (c) Steve Scherf et al.
# Submitted via: ExactAudioCopy v0.99pb5
#
DISCID=ab08e70d
DTITLE=Various Artist - Country Blues (Reborn and Remastered Disc 2 bonus)
DYEAR=2010
DGENRE=Blues
TTITLE0=Little Walter - My Babe
TTITLE1=James Cotton - Cotton Crop Blues
TTITLE2=Jimmy Rogers - Walking By Myself
TTITLE3=Junior Wells - Hoodoo Man Blues
TTITLE4=Walter Horton - Black Gal Blues
TTITLE5=Robert Lockwood Jr. - Dust My Broom
TTITLE6=Lil' Son Jackson - Rockin' And Rollin'
TTITLE7=Earl Hooker - Sweet Angel
TTITLE8=Baby Face Leroy Foster - Rollin' And Tumblin (Part One)
TTITLE9=Baby Face Leroy Foster - Rollin' And Tumblin' (Part Two)
TTITLE10=Buddy Guy - Sit And Cry The Blues
TTITLE11=St Louis Jimmy Oden - One Doggone Reason
TTITLE12=Otis Rush - I Can't Quit You Baby
EXTD=
EXTT0=
EXTT1=
EXTT2=
EXTT3=
EXTT4=
EXTT5=
EXTT6=
EXTT7=
EXTT8=
EXTT9=
EXTT10=
EXTT11=
EXTT12=
PLAYORDER=
